# xmcd CD database file
#
# Track frame offsets:
#	150
#	20822
#	33861
#	54557
#	74551
#	88521
#	113683
#	133024
#	146374
#	167446
#	185130
#	203802
#
# Disc length: 2872 seconds
#
# Revision: 0
# Processed by: cddbd v1.5.2PL0 Copyright (c) Steve Scherf et al.
# Submitted via: cdripper 1,0,39,0213
#
DISCID=a80b360c
DTITLE=Clint Black - The Love Songs
DYEAR=1900
DGENRE=Country
TTITLE0=01 - When I Said I Do (Duet w Lisa Hartman Black)
TTITLE1=02 - You Made Me Feel
TTITLE2=03 - Something That We Do
TTITLE3=04 - Our Kind Of Love
TTITLE4=05 - My Imagination
TTITLE5=06 - Like The Rain
TTITLE6=07 - You Know It All
TTITLE7=08 - That Something In My Life
TTITLE8=09 - One Emotion
TTITLE9=10 - Half The Man
TTITLE10=11 - Easy For Me To Say (Duet w Lisa Hartman Black)
TTITLE11=12 - I'll Have To Say I Love You In A Song
EXTD=
EXTT0=
EXTT1=
EXTT2=
EXTT3=
EXTT4=
EXTT5=
EXTT6=
EXTT7=
EXTT8=
EXTT9=
EXTT10=
EXTT11=
PLAYORDER=
